I didn't include tracks 7-12, which are bullshit orchestral tracks w/o Charice.


Exact Audio Copy V0.99 prebeta 4 from 23. January 2008

EAC extraction logfile from 18. July 2009, 19:19

Charice / Charice

Used drive  : ATAPI   DVD D  DH16D3P   Adapter: 0  ID: 1

Read mode               : Secure
Utilize accurate stream : Yes
Defeat audio cache      : No
Make use of C2 pointers : No

Read offset correction                      : 6
Overread into Lead-In and Lead-Out          : No
Fill up missing offset samples with silence : Yes
Delete leading and trailing silent blocks   : No
Null samples used in CRC calculations       : No
Used interface                              : Installed external ASPI interface
Gap handling                                : Not detected, thus appended to previous track

Used output format : Internal WAV Routines
Sample format      : 44.100 Hz; 16 Bit; Stereo


TOC of the extracted CD

     Track |   Start  |  Length  | Start sector | End sector 
    ---------------------------------------------------------
        1  |  0:00.00 |  4:01.17 |         0    |    18091   
        2  |  4:01.17 |  3:25.45 |     18092    |    33511   
        3  |  7:26.62 |  4:21.29 |     33512    |    53115   
        4  | 11:48.16 |  3:45.10 |     53116    |    70000   
        5  | 15:33.26 |  4:56.23 |     70001    |    92223   
        6  | 20:29.49 |  4:09.54 |     92224    |   110952   
Track  1

     Filename E:MusicChariceChariceCharice - Charice - 01. And I'm Telling You (I'm Not Going).wav

     Peak level 97.7 %
     Track quality 100.0 %
     Copy CRC 0B5AD897
     Track not present in AccurateRip database
     Copy OK

Track  2

     Filename E:MusicChariceChariceCharice - Charice - 02. It Can Only Get Better.wav

     Peak level 97.7 %
     Track quality 100.0 %
     Copy CRC A29FB6D8
     Track not present in AccurateRip database
     Copy OK

Track  3

     Filename E:MusicChariceChariceCharice - Charice - 03. I Will Always Love You.wav

     Peak level 97.7 %
     Track quality 100.0 %
     Copy CRC A7D01E75
     Track not present in AccurateRip database
     Copy OK

Track  4

     Filename E:MusicChariceChariceCharice - Charice - 04. Born To Love You Forever.wav

     Peak level 97.7 %
     Track quality 99.9 %
     Copy CRC 1639BB7A
     Track not present in AccurateRip database
     Copy OK

Track  5

     Filename E:MusicChariceChariceCharice - Charice - 05. I Have Nothing.wav

     Peak level 97.7 %
     Track quality 100.0 %
     Copy CRC C8C33014
     Track not present in AccurateRip database
     Copy OK

Track  6

     Filename E:MusicChariceChariceCharice - Charice - 06. Mama.wav

     Peak level 97.7 %
     Track quality 99.9 %
     Copy CRC 5949A8BA
     Track not present in AccurateRip database
     Copy OK

None of the tracks are present in the AccurateRip database

No errors occurred

End of status report
